<svg viewBox="0 0 600 300" fill="none" xmlns="http://www.w3.org/2000/svg">
<path d="M43.4029 195.716V104.462H64.9095V195.716H43.4029ZM54.2156 91.5103C50.8094 91.5103 47.8785 90.3815 45.4228 88.1239C42.9672 85.8267 41.7394 83.074 41.7394 79.8659C41.7394 76.6181 42.9672 73.8654 45.4228 71.6078C47.8785 69.3106 50.8094 68.162 54.2156 68.162C57.6614 68.162 60.5923 69.3106 63.0084 71.6078C65.464 73.8654 66.6918 76.6181 66.6918 79.8659C66.6918 83.074 65.464 85.8267 63.0084 88.1239C60.5923 90.3815 57.6614 91.5103 54.2156 91.5103Z" fill="black"/>
<path d="M73.6411 195.716V104.462H94.1971V119.968H95.2665C97.1676 114.74 100.316 110.66 104.713 107.729C109.109 104.759 114.357 103.274 120.457 103.274C126.635 103.274 131.844 104.779 136.082 107.789C140.359 110.759 143.369 114.819 145.112 119.968H146.063C148.082 114.898 151.489 110.858 156.281 107.848C161.113 104.799 166.836 103.274 173.451 103.274C181.847 103.274 188.7 105.927 194.007 111.235C199.314 116.542 201.968 124.285 201.968 134.464V195.716H180.402V137.791C180.402 132.127 178.897 127.988 175.887 125.374C172.876 122.721 169.193 121.394 164.836 121.394C159.648 121.394 155.588 123.018 152.657 126.266C149.766 129.474 148.32 133.652 148.32 138.801V195.716H127.229V136.9C127.229 132.187 125.804 128.424 122.952 125.612C120.14 122.8 116.456 121.394 111.901 121.394C108.812 121.394 106 122.186 103.465 123.77C100.93 125.315 98.9104 127.513 97.4053 130.365C95.9002 133.177 95.1477 136.464 95.1477 140.227V195.716H73.6411Z" fill="black"/>
<path d="M244.266 197.321C237.098 197.321 230.681 195.479 225.017 191.795C219.354 188.112 214.878 182.765 211.591 175.755C208.303 168.744 206.66 160.229 206.66 150.208C206.66 140.069 208.323 131.513 211.65 124.543C215.017 117.532 219.552 112.245 225.255 108.68C230.958 105.076 237.315 103.274 244.326 103.274C249.673 103.274 254.069 104.185 257.515 106.007C260.961 107.789 263.694 109.947 265.714 112.482C267.734 114.978 269.298 117.334 270.407 119.552H271.298V104.462H292.864V195.716H271.714V181.339H270.407C269.298 183.557 267.694 185.914 265.595 188.409C263.496 190.865 260.723 192.964 257.277 194.706C253.831 196.449 249.495 197.321 244.266 197.321ZM250.267 179.676C254.822 179.676 258.703 178.448 261.911 175.992C265.119 173.497 267.555 170.031 269.219 165.595C270.882 161.159 271.714 155.991 271.714 150.089C271.714 144.188 270.882 139.059 269.219 134.702C267.595 130.345 265.179 126.959 261.971 124.543C258.802 122.127 254.901 120.919 250.267 120.919C245.474 120.919 241.474 122.166 238.266 124.661C235.058 127.157 232.642 130.602 231.018 134.999C229.394 139.395 228.582 144.425 228.582 150.089C228.582 155.793 229.394 160.882 231.018 165.358C232.681 169.794 235.117 173.299 238.325 175.873C241.573 178.408 245.554 179.676 250.267 179.676Z" fill="black"/>
<path d="M342.084 231.838C334.361 231.838 327.727 230.788 322.182 228.689C316.637 226.63 312.181 223.857 308.814 220.372C305.448 216.886 303.111 213.025 301.804 208.787L321.172 204.093C322.043 205.876 323.31 207.638 324.974 209.381C326.637 211.163 328.875 212.629 331.687 213.777C334.539 214.965 338.123 215.56 342.441 215.56C348.54 215.56 353.59 214.074 357.59 211.104C361.591 208.173 363.591 203.341 363.591 196.608V179.319H362.521C361.412 181.537 359.788 183.815 357.65 186.151C355.55 188.488 352.758 190.449 349.273 192.033C345.827 193.617 341.49 194.409 336.262 194.409C329.251 194.409 322.894 192.766 317.191 189.478C311.527 186.151 307.012 181.2 303.645 174.626C300.318 168.011 298.655 159.733 298.655 149.792C298.655 139.772 300.318 131.315 303.645 124.424C307.012 117.493 311.547 112.245 317.25 108.68C322.954 105.076 329.311 103.274 336.321 103.274C341.668 103.274 346.065 104.185 349.51 106.007C352.996 107.789 355.768 109.947 357.828 112.482C359.887 114.978 361.452 117.334 362.521 119.552H363.71V104.462H384.919V197.202C384.919 205.004 383.058 211.46 379.335 216.57C375.611 221.679 370.522 225.501 364.066 228.036C357.61 230.571 350.283 231.838 342.084 231.838ZM342.262 177.537C346.817 177.537 350.699 176.428 353.907 174.21C357.115 171.992 359.551 168.803 361.214 164.645C362.878 160.486 363.71 155.496 363.71 149.673C363.71 143.93 362.878 138.9 361.214 134.583C359.59 130.266 357.174 126.919 353.966 124.543C350.798 122.127 346.896 120.919 342.262 120.919C337.47 120.919 333.47 122.166 330.261 124.661C327.053 127.157 324.637 130.583 323.013 134.939C321.389 139.257 320.577 144.168 320.577 149.673C320.577 155.258 321.389 160.149 323.013 164.348C324.677 168.506 327.113 171.754 330.321 174.091C333.569 176.388 337.549 177.537 342.262 177.537Z" fill="black"/>
<path d="M433.976 197.499C424.826 197.499 416.925 195.598 410.271 191.795C403.656 187.953 398.567 182.527 395.002 175.517C391.438 168.467 389.655 160.169 389.655 150.624C389.655 141.237 391.438 132.999 395.002 125.909C398.606 118.78 403.637 113.235 410.093 109.274C416.548 105.274 424.133 103.274 432.847 103.274C438.471 103.274 443.778 104.185 448.769 106.007C453.799 107.789 458.235 110.561 462.077 114.324C465.958 118.087 469.008 122.879 471.226 128.701C473.444 134.484 474.553 141.376 474.553 149.376V155.971H399.755V141.475H453.938C453.898 137.355 453.007 133.692 451.264 130.484C449.521 127.236 447.086 124.681 443.957 122.82C440.867 120.958 437.263 120.027 433.144 120.027C428.747 120.027 424.886 121.097 421.559 123.236C418.232 125.335 415.638 128.107 413.776 131.553C411.954 134.959 411.023 138.702 410.984 142.782V155.436C410.984 160.743 411.954 165.298 413.895 169.101C415.836 172.863 418.549 175.755 422.034 177.774C425.519 179.755 429.599 180.745 434.273 180.745C437.402 180.745 440.233 180.309 442.768 179.438C445.303 178.527 447.501 177.2 449.363 175.457C451.224 173.715 452.63 171.556 453.581 168.982L473.662 171.239C472.394 176.547 469.978 181.181 466.414 185.141C462.889 189.062 458.374 192.112 452.868 194.291C447.363 196.429 441.065 197.499 433.976 197.499Z" fill="black"/>
<path d="M519.169 197.499C510.059 197.499 502.237 195.499 495.701 191.498C489.206 187.498 484.196 181.973 480.67 174.923C477.185 167.833 475.442 159.674 475.442 150.446C475.442 141.178 477.225 132.999 480.789 125.909C484.354 118.78 489.384 113.235 495.88 109.274C502.415 105.274 510.138 103.274 519.05 103.274C526.456 103.274 533.011 104.64 538.715 107.373C544.458 110.066 549.032 113.888 552.438 118.839C555.845 123.75 557.785 129.493 558.261 136.068H537.705C536.873 131.672 534.893 128.008 531.764 125.077C528.674 122.107 524.535 120.622 519.347 120.622C514.95 120.622 511.089 121.81 507.762 124.186C504.435 126.523 501.84 129.89 499.979 134.286C498.157 138.682 497.246 143.95 497.246 150.089C497.246 156.307 498.157 161.654 499.979 166.13C501.801 170.566 504.356 173.992 507.643 176.408C510.97 178.784 514.871 179.973 519.347 179.973C522.515 179.973 525.347 179.379 527.842 178.19C530.377 176.963 532.496 175.2 534.199 172.903C535.902 170.606 537.071 167.813 537.705 164.526H558.261C557.746 170.982 555.845 176.705 552.557 181.696C549.27 186.646 544.794 190.528 539.13 193.34C533.467 196.113 526.813 197.499 519.169 197.499Z" fill="black"/>
</svg>
